<mxfile host="app.diagrams.net" modified="2021-09-22T09:15:51.858Z" agent="5.0 (Windows NT 10.0; WOW64) AppleWebKit/537.36 (KHTML, like Gecko) Chrome/86.0.4240.198 Safari/537.36" etag="7OE5zPh4gioFpAfWp-QT" version="15.2.9" type="github">
  <diagram name="Page-1" id="e3a06f82-3646-2815-327d-82caf3d4e204">
    <mxGraphModel dx="1673" dy="881" grid="0" gridSize="10" guides="1" tooltips="1" connect="1" arrows="1" fold="1" page="1" pageScale="1.5" pageWidth="1169" pageHeight="826" background="none" math="0" shadow="0">
      <root>
        <mxCell id="0" style=";html=1;" />
        <mxCell id="1" style=";html=1;" parent="0" />
        <mxCell id="ITkbN07QJ2-XhHyLZyoW-5" value="Client" style="verticalLabelPosition=bottom;sketch=0;aspect=fixed;html=1;verticalAlign=top;strokeColor=none;align=center;outlineConnect=0;shape=mxgraph.citrix.desktop;" vertex="1" parent="1">
          <mxGeometry x="1201.5" y="551" width="89" height="98" as="geometry" />
        </mxCell>
        <mxCell id="ITkbN07QJ2-XhHyLZyoW-6" value="艾科朗克行情服务" style="verticalLabelPosition=bottom;sketch=0;aspect=fixed;html=1;verticalAlign=top;strokeColor=#82b366;align=center;outlineConnect=0;shape=mxgraph.citrix.netscaler_gateway;fillColor=#d5e8d4;" vertex="1" parent="1">
          <mxGeometry x="1315" y="297" width="100" height="39" as="geometry" />
        </mxCell>
        <mxCell id="ITkbN07QJ2-XhHyLZyoW-7" value="深交所网关" style="verticalLabelPosition=bottom;sketch=0;aspect=fixed;html=1;verticalAlign=top;strokeColor=none;align=center;outlineConnect=0;shape=mxgraph.citrix.netscaler_gateway;" vertex="1" parent="1">
          <mxGeometry x="1091" y="309" width="100" height="39" as="geometry" />
        </mxCell>
        <mxCell id="ITkbN07QJ2-XhHyLZyoW-15" value="" style="shape=link;endArrow=classic;html=1;rounded=1;" edge="1" parent="1">
          <mxGeometry width="50" height="50" relative="1" as="geometry">
            <mxPoint x="1022" y="507" as="sourcePoint" />
            <mxPoint x="1512" y="507" as="targetPoint" />
          </mxGeometry>
        </mxCell>
        <mxCell id="ITkbN07QJ2-XhHyLZyoW-16" value="" style="endArrow=classic;html=1;entryX=0.704;entryY=-0.037;entryDx=0;entryDy=0;entryPerimeter=0;" edge="1" parent="1" source="ITkbN07QJ2-XhHyLZyoW-6" target="ITkbN07QJ2-XhHyLZyoW-14">
          <mxGeometry width="50" height="50" relative="1" as="geometry">
            <mxPoint x="1378.51" y="367" as="sourcePoint" />
            <mxPoint x="1274" y="458" as="targetPoint" />
          </mxGeometry>
        </mxCell>
        <mxCell id="ITkbN07QJ2-XhHyLZyoW-17" value="" style="endArrow=classic;html=1;entryX=0.421;entryY=-0.025;entryDx=0;entryDy=0;entryPerimeter=0;" edge="1" parent="1" source="ITkbN07QJ2-XhHyLZyoW-7" target="ITkbN07QJ2-XhHyLZyoW-14">
          <mxGeometry width="50" height="50" relative="1" as="geometry">
            <mxPoint x="1137.51" y="376" as="sourcePoint" />
            <mxPoint x="1042.9973646209385" y="495" as="targetPoint" />
          </mxGeometry>
        </mxCell>
        <mxCell id="ITkbN07QJ2-XhHyLZyoW-14" value="UDP Monitor" style="shape=ext;double=1;rounded=0;whiteSpace=wrap;html=1;strokeColor=#82B366;" vertex="1" parent="1">
          <mxGeometry x="1186" y="413" width="120" height="56" as="geometry" />
        </mxCell>
        <mxCell id="ITkbN07QJ2-XhHyLZyoW-19" value="" style="endArrow=classic;html=1;startSize=0;endSize=6;strokeWidth=1;opacity=60;" edge="1" parent="1" target="ITkbN07QJ2-XhHyLZyoW-5">
          <mxGeometry width="50" height="50" relative="1" as="geometry">
            <mxPoint x="1243" y="469" as="sourcePoint" />
            <mxPoint x="1293" y="419" as="targetPoint" />
          </mxGeometry>
        </mxCell>
        <mxCell id="ITkbN07QJ2-XhHyLZyoW-20" value="&lt;font style=&quot;font-size: 21px&quot;&gt;数据展示&amp;amp;报警&lt;/font&gt;" style="rounded=0;whiteSpace=wrap;html=1;" vertex="1" parent="1">
          <mxGeometry x="287" y="204" width="331" height="60" as="geometry" />
        </mxCell>
        <mxCell id="ITkbN07QJ2-XhHyLZyoW-26" value="" style="edgeStyle=orthogonalEdgeStyle;rounded=1;orthogonalLoop=1;jettySize=auto;html=1;startSize=0;endSize=6;strokeWidth=1;opacity=60;" edge="1" parent="1" source="ITkbN07QJ2-XhHyLZyoW-24" target="ITkbN07QJ2-XhHyLZyoW-23">
          <mxGeometry relative="1" as="geometry" />
        </mxCell>
        <mxCell id="ITkbN07QJ2-XhHyLZyoW-27" value="" style="edgeStyle=orthogonalEdgeStyle;rounded=1;orthogonalLoop=1;jettySize=auto;html=1;startSize=0;endSize=6;strokeWidth=1;opacity=60;" edge="1" parent="1" source="ITkbN07QJ2-XhHyLZyoW-24" target="ITkbN07QJ2-XhHyLZyoW-23">
          <mxGeometry relative="1" as="geometry" />
        </mxCell>
        <mxCell id="ITkbN07QJ2-XhHyLZyoW-25" value="" style="endArrow=classic;html=1;startSize=0;endSize=6;strokeWidth=1;opacity=60;" edge="1" parent="1">
          <mxGeometry width="50" height="50" relative="1" as="geometry">
            <mxPoint x="451.91" y="523" as="sourcePoint" />
            <mxPoint x="451.91" y="473" as="targetPoint" />
          </mxGeometry>
        </mxCell>
        <mxCell id="ITkbN07QJ2-XhHyLZyoW-29" value="" style="endArrow=classic;html=1;startSize=0;endSize=6;strokeWidth=1;opacity=60;" edge="1" parent="1">
          <mxGeometry width="50" height="50" relative="1" as="geometry">
            <mxPoint x="455" y="423" as="sourcePoint" />
            <mxPoint x="455" y="365" as="targetPoint" />
          </mxGeometry>
        </mxCell>
        <mxCell id="ITkbN07QJ2-XhHyLZyoW-30" value="" style="endArrow=classic;html=1;startSize=0;endSize=6;strokeWidth=1;opacity=60;" edge="1" parent="1">
          <mxGeometry width="50" height="50" relative="1" as="geometry">
            <mxPoint x="457" y="320" as="sourcePoint" />
            <mxPoint x="457" y="262" as="targetPoint" />
          </mxGeometry>
        </mxCell>
        <mxCell id="ITkbN07QJ2-XhHyLZyoW-31" value="" style="endArrow=classic;html=1;startSize=0;endSize=6;strokeWidth=1;opacity=60;" edge="1" parent="1">
          <mxGeometry width="50" height="50" relative="1" as="geometry">
            <mxPoint x="469" y="777" as="sourcePoint" />
            <mxPoint x="469" y="719" as="targetPoint" />
          </mxGeometry>
        </mxCell>
        <mxCell id="ITkbN07QJ2-XhHyLZyoW-32" value="" style="endArrow=classic;html=1;startSize=0;endSize=6;strokeWidth=1;opacity=60;" edge="1" parent="1">
          <mxGeometry width="50" height="50" relative="1" as="geometry">
            <mxPoint x="479" y="787" as="sourcePoint" />
            <mxPoint x="479" y="729" as="targetPoint" />
          </mxGeometry>
        </mxCell>
        <mxCell id="ITkbN07QJ2-XhHyLZyoW-33" value="" style="endArrow=classic;html=1;startSize=0;endSize=6;strokeWidth=1;opacity=60;" edge="1" parent="1">
          <mxGeometry width="50" height="50" relative="1" as="geometry">
            <mxPoint x="489" y="797" as="sourcePoint" />
            <mxPoint x="489" y="739" as="targetPoint" />
          </mxGeometry>
        </mxCell>
        <mxCell id="ITkbN07QJ2-XhHyLZyoW-23" value="&lt;font style=&quot;font-size: 21px&quot;&gt;数据统计分析&lt;/font&gt;" style="rounded=0;whiteSpace=wrap;html=1;" vertex="1" parent="1">
          <mxGeometry x="287" y="413" width="331" height="60" as="geometry" />
        </mxCell>
        <mxCell id="ITkbN07QJ2-XhHyLZyoW-24" value="&lt;font style=&quot;font-size: 21px&quot;&gt;数据采集&lt;/font&gt;" style="rounded=0;whiteSpace=wrap;html=1;" vertex="1" parent="1">
          <mxGeometry x="287" y="519" width="331" height="60" as="geometry" />
        </mxCell>
        <mxCell id="ITkbN07QJ2-XhHyLZyoW-22" value="&lt;font style=&quot;font-size: 20px&quot;&gt;报警策略配置&lt;/font&gt;" style="rounded=0;whiteSpace=wrap;html=1;" vertex="1" parent="1">
          <mxGeometry x="287" y="307" width="331" height="60" as="geometry" />
        </mxCell>
        <mxCell id="ITkbN07QJ2-XhHyLZyoW-34" value="&lt;font style=&quot;font-size: 18px&quot;&gt;企业微信&lt;/font&gt;" style="text;html=1;resizable=0;autosize=1;align=center;verticalAlign=middle;points=[];rounded=0;dashed=1;fillColor=#dae8fc;strokeColor=#6c8ebf;" vertex="1" parent="1">
          <mxGeometry x="1303" y="630" width="82" height="20" as="geometry" />
        </mxCell>
        <mxCell id="ITkbN07QJ2-XhHyLZyoW-35" value="&lt;font style=&quot;font-size: 18px&quot;&gt;界面展示&lt;/font&gt;" style="text;html=1;resizable=0;autosize=1;align=center;verticalAlign=middle;points=[];rounded=0;rotation=0;dashed=1;fillColor=#dae8fc;strokeColor=#6c8ebf;" vertex="1" parent="1">
          <mxGeometry x="1303" y="595" width="82" height="20" as="geometry" />
        </mxCell>
      </root>
    </mxGraphModel>
  </diagram>
</mxfile>
